<svg width="100" height="61" viewBox="0 0 100 61" fill="none" xmlns="http://www.w3.org/2000/svg">
<path d="M98.665 28.1874C88.6352 10.8002 69.9878 0 50 0C30.0122 0 11.3666 10.8002 1.33498 28.1874L0 30.5L1.33498 32.8126C11.3648 50.1998 30.0122 61 50 61C69.9878 61 88.6334 50.1998 98.665 32.8126L100 30.5L98.665 28.1874ZM50.499 46.8989C40.6625 46.8989 32.66 38.8712 32.66 29.0038C32.66 19.1364 40.6625 11.1087 50.499 11.1087C60.3355 11.1087 68.338 19.1364 68.338 29.0038C68.338 38.8712 60.3355 46.8989 50.499 46.8989ZM10.7277 30.5C14.9702 24.0405 20.6931 18.8168 27.2814 15.1576C24.8656 19.2177 23.4514 23.9426 23.4514 29.0038C23.4514 36.228 26.2982 42.7816 30.9015 47.6489C22.7904 44.0118 15.7288 38.1139 10.7277 30.5ZM70.8533 46.8121C75.0074 42.0409 77.5447 35.8216 77.5447 29.0038C77.5447 24.3176 76.3552 19.9066 74.2616 16.0572C80.2 19.6554 85.365 24.5522 89.2705 30.5C84.6358 37.5579 78.2261 43.1363 70.8533 46.8121Z" fill="white"/>
</svg>
